<svg xmlns="http://www.w3.org/2000/svg" viewBox="0 0 131.89 124.84"><defs><style>.cls-1{fill:#e6e7e8;}.cls-1,.cls-2,.cls-4{stroke:#231f20;stroke-linecap:round;stroke-miterlimit:10;}.cls-2,.cls-3{fill:#bfbfbf;}.cls-4{fill:#fff;}</style></defs><title>BodyBase</title><g id="Layer_2" data-name="Layer 2"><g id="Layer_2-2" data-name="Layer 2"><line class="cls-1" x1="54.02" y1="0.5" x2="76.61" y2="0.5"/></g><g id="Layer_1-2" data-name="Layer 1"><line class="cls-1" x1="53.52" y1="124.34" x2="76.99" y2="124.34"/><ellipse class="cls-2" cx="55.28" cy="62.42" rx="54.78" ry="61.92"/></g><g id="Layer_3" data-name="Layer 3"><path class="cls-3" d="M69.18,14.81H61.45c-9.6,0-17.39-3.09-17.39-6.9h0C44.06,4.1,51.85,1,61.45,1h7.73c9.6,0,17.39,3.09,17.39,6.9h0C86.56,11.72,78.78,14.81,69.18,14.81Z"/></g><g id="Layer_3_copy" data-name="Layer 3 copy"><path class="cls-3" d="M69.49,123.86H60.92c-10.65,0-19.28-3.48-19.28-7.78h0c0-4.3,8.63-7.78,19.28-7.78h8.57c10.65,0,19.28,3.48,19.28,7.78h0C88.77,120.38,80.13,123.86,69.49,123.86Z"/></g><g id="Layer_1_copy" data-name="Layer 1 copy"><ellipse class="cls-4" cx="76.61" cy="62.42" rx="54.78" ry="61.92"/></g></g></svg>