<svg xmlns="http://www.w3.org/2000/svg" viewBox="0 0 77.26 53.19"><defs><style>.cls-1{fill:#1b1b1b;}.cls-2{fill:#5c5c5c;}.cls-3{fill:#2d2d2d;}.cls-4{fill:#4c3423;}</style></defs><title>Asset 1</title><g id="Layer_2" data-name="Layer 2"><g id="Layer_5" data-name="Layer 5"><path class="cls-1" d="M77.2,8.86A14.66,14.66,0,0,1,77,7.12a4.36,4.36,0,0,1,.24-1.53V5.36H66.82V13h9.49a5.06,5.06,0,0,1,.91-1.37V8.95S77.2,8.89,77.2,8.86Z"/><rect class="cls-2" x="20.35" y="2.12" width="32.23" height="6.99"/><path class="cls-3" d="M77.2,8.86A14.66,14.66,0,0,1,77,7.12a4.37,4.37,0,0,1,.28-1.63q0-1.14-.1-2.27a4.52,4.52,0,0,0-3.44-1.51H49.1A5.83,5.83,0,0,1,45,3.87c-6,.69-12,1.57-18,1.33a4.87,4.87,0,0,1-4.64-3.51H11.32a4.84,4.84,0,0,0-1.33.2,4.4,4.4,0,0,1-.32.34A4.2,4.2,0,0,1,8,3.09,3.43,3.43,0,0,0,7,5.43v4.71a4.05,4.05,0,0,0,4.3,3.74H62.61a3.39,3.39,0,0,1,1.32-.77,9.37,9.37,0,0,1,3.41-2.58,10,10,0,0,1,1.89-.61A5.33,5.33,0,0,1,71,9.61h.53a20.4,20.4,0,0,1,5.59-.49L77.22,9h0S77.2,8.89,77.2,8.86Z"/><path class="cls-3" d="M12.32,52.6a5.5,5.5,0,0,1,1.7-.89,3.71,3.71,0,0,1,.48-.12,6.48,6.48,0,0,0,2.62-4.09l5.44-28.89A6.5,6.5,0,0,0,17.38,11l-3.45-.65a6.51,6.51,0,0,0-7.6,5.19L6.1,16.73A5.45,5.45,0,0,1,7,19.53H7A5.23,5.23,0,0,1,5.15,25c0,.12-.08.25-.14.37a10,10,0,0,1-.77,1.29L.88,44.45A6.5,6.5,0,0,0,6.07,52l3.45.65A6.47,6.47,0,0,0,12.32,52.6Z"/><path class="cls-3" d="M7.47,9.52a3.48,3.48,0,0,0-3.19,5.58,4.92,4.92,0,0,1,1.35,1,3.44,3.44,0,0,0,.95.28,3.48,3.48,0,0,0,.9-6.9Z"/><path class="cls-3" d="M7,13,0,13S0,13,0,13c0-1.7,3.17-3.11,7-3.11s7,1.4,7,3.11Z"/><path class="cls-3" d="M13.92,51.75,18.77,31.2,5.15,28,.22,48.87.34,49a11.34,11.34,0,0,1,1,1.74l10.34,2.44A5.16,5.16,0,0,1,13.92,51.75Z"/><rect class="cls-3" x="11.62" y="11.09" width="10.92" height="14.33" transform="translate(3.67 -2.85) rotate(10.67)"/><path class="cls-3" d="M10.66,3.14,8.74,2.25a6.51,6.51,0,0,1-1.07-.12A4.9,4.9,0,0,1,5.17.59L3.9,0c-.55,1.19,2,3.58,5.76,5.31s7.18,2.16,7.76,1Z"/><rect class="cls-3" x="7.02" y="9.49" width="61.62" height="4.39" rx="2" ry="2"/><rect class="cls-3" x="12.35" y="0.47" width="1.22" height="2.44"/><path class="cls-3" d="M20.69,23.49c3.36.05,8.17,1.35,10.8-1.44,2.16-2.3,2.58-6.53,0-8.62-.62-.5-1.51.38-.88.88C33.17,16.4,32,21.13,29,22.18c-2.55.89-5.68.1-8.3.06a.63.63,0,0,0,0,1.25Z"/><path class="cls-3" d="M22.75,13.37a7.34,7.34,0,0,0,1.16,7.94c.54.6,1.42-.28.88-.88C23,18.46,23,16.05,24,13.7c.3-.75-.91-1.07-1.21-.33Z"/><path class="cls-3" d="M20.52,16.47c3-1.18,6.72-3.19,10-2,.76.27,1.08-.93.33-1.21-3.55-1.28-7.4.73-10.67,2-.74.29-.42,1.5.33,1.21Z"/><path class="cls-3" d="M18,16.53v-1a.63.63,0,0,0-1.25,0v1a.63.63,0,0,0,1.25,0Z"/><path class="cls-3" d="M20.75,19a26.73,26.73,0,0,0,1.73,4.15c.37.71,1.45.08,1.08-.63A24.75,24.75,0,0,1,22,18.7c-.25-.76-1.46-.44-1.21.33Z"/><path class="cls-3" d="M72,3.53c0-.42,0-.85.42-1.05a2.31,2.31,0,0,1,1.46,0c.78.18,1.12-1,.33-1.21a3.45,3.45,0,0,0-2.49.17,2.14,2.14,0,0,0-1,2.1c.05.8,1.3.8,1.25,0Z"/><path d="M7.6,10c.79.64,1.71,1.12,2.48,1.79,1.58,1.37,1,2.57-.45,3.52s-2.29,1.83-2.4,3.6c0,.16.24.16.25,0,.11-1.9,1.23-2.65,2.65-3.63a2.71,2.71,0,0,0,1.21-1.34C11.94,12,8.93,10.7,7.78,9.78c-.12-.1-.3.08-.18.18Z"/><rect class="cls-4" x="-3.74" y="25.94" width="34.47" height="12.81" rx="2" ry="2" transform="translate(-20.79 39.62) rotate(-79.33)"/></g></g></svg>