<svg xmlns="http://www.w3.org/2000/svg" viewBox="0 0 300.01 74.8"><defs><style>.cls-1{fill:none;}.cls-2{fill:#4c3423;}.cls-3{fill:#2d2d2d;}.cls-4{fill:#6d6d6d;}.cls-5{fill:#4f4f4f;}</style></defs><title>Asset 1</title><g id="Layer_2" data-name="Layer 2"><g id="Layer_1-2" data-name="Layer 1"><line class="cls-1" x1="57.37" y1="74.8" x2="93.46" y2="74.46"/><path class="cls-2" d="M8.18,20.75a3.63,3.63,0,0,1-1,.65l-.07,0,.29,1.07c4.1,5.28,5.46,12.17,5,18.48L18,62,98.89,23.88Z"/><path class="cls-2" d="M91.53,34.4,94.88,27,80.93,19.47l-5,11.06,10.8,5.82A10.21,10.21,0,0,0,91.53,34.4Z"/><path class="cls-2" d="M87,15a4.27,4.27,0,0,1-.64.39,5,5,0,0,1-1.14.38,10.34,10.34,0,0,1-4,1.3,5.67,5.67,0,0,1-2.21.05,2.57,2.57,0,0,1-1.18-.24c-2.73-.68-4.76-2.62-6.75-4.55L71,12.28l-.58-.46a4.7,4.7,0,0,1-1.26-1.21l-1-.81a3.17,3.17,0,0,1-.3-.3,10.44,10.44,0,0,0-1.95-1.16h0a2.53,2.53,0,0,1-.63-.05h-48A10.63,10.63,0,0,0,15,9.75c-1.4,1.21-2.29,2.92-3.75,4.09A11.11,11.11,0,0,1,2.63,16a3.08,3.08,0,0,1-.43,0v7.78c.06.23.12.45.18.68H87.51V14.72Z"/><path class="cls-3" d="M110,2.1,88.63,13.8l0,.08a3.38,3.38,0,0,1-1.49,1.23,3.88,3.88,0,0,1-.65.45,4.49,4.49,0,0,1-.73.32l5.73,12.49L115.93,15Z"/><path class="cls-3" d="M171,16.64V.59H110.27V16.94h60.4C170.8,16.84,170.91,16.74,171,16.64Z"/><path class="cls-3" d="M106.37,19.81c1.72,15.16,23,.42,21-3.53-.17-.35-1.56.16-1.45.39,1.89,3.85-16.54,16.59-18.12,2.75,0-.27-1.49,0-1.45.39Z"/><path class="cls-3" d="M108.83,18c.33,2.87,1.79,4.39,4.13,5.57"/><path class="cls-3" d="M108.11,18.14a7.2,7.2,0,0,0,4.26,5.69c.34.18,1.68-.36,1.17-.62a6.88,6.88,0,0,1-4-5.46c0-.37-1.51-.06-1.45.39Z"/><path class="cls-3" d="M126.66,17.27c1.64.07,3.11-.87,4.54-1.66"/><path class="cls-3" d="M126.4,17.76A10.25,10.25,0,0,0,131.51,16c.86-.48.08-1.16-.62-.77-1.22.68-2.52,1.56-4,1.56-.31,0-.82.09-.95.43a.4.4,0,0,0,.43.55Z"/><path class="cls-3" d="M98.9,4.92c-4.77,2.75-8.6,6-10.29,8.58l0,.09a2.16,2.16,0,0,1-.15.2c-.69,1.13-.95,2.11-.64,2.81l0,.08,12.93-7.54,13-7.46C112.7-.63,106,.83,98.9,4.92Z"/><rect class="cls-3" x="169.94" y="0.59" width="76.77" height="14.61"/><path class="cls-3" d="M300,5.48a23.73,23.73,0,0,0-.14-4.59,3,3,0,0,0-1.31-.3H241.59a3.45,3.45,0,0,0-3.28,3.59,3.45,3.45,0,0,0,3.28,3.59H298.5a3,3,0,0,0,1.31-.31C299.88,6.71,299.92,6,300,5.48Z"/><path class="cls-3" d="M260.37,9.23l-.09,0H245.89v6.3H260a4.05,4.05,0,0,0,1-1V9.95A4.1,4.1,0,0,0,260.37,9.23Z"/><path class="cls-3" d="M261.58,11.3a3.58,3.58,0,0,0-1.22-2.08l-.1,0h-.08a3.12,3.12,0,0,0-2.48,3.15A3.15,3.15,0,0,0,260,15.48a4.21,4.21,0,0,0,1.61-2.11A12,12,0,0,0,261.58,11.3Z"/><path class="cls-2" d="M5.82,16A14.54,14.54,0,0,1,3,16H.62v3.32q.64,1.47,1.15,3H17.61V16Z"/><path class="cls-2" d="M7.26,16c-1.66.08-3.35.08-5.06,0H.26c-.05.13-.09.27-.15.4s-.07.11-.11.18C.38,18.27.72,20,1,21.66c1.15,3.39,2.75,6.67,3.45,10.19A59.47,59.47,0,0,1,5.31,42.8,54.46,54.46,0,0,1,2.58,60.38h16V16Z"/><path class="cls-2" d="M15.67,53.29,2.76,59.83C2.41,61,2,62.1,1.58,63.24a3.11,3.11,0,0,1,0,.64l2.11,5a4.51,4.51,0,0,1,.59.08l14.81-7.51Z"/><path class="cls-3" d="M131.2,16.37a7.15,7.15,0,0,1-2.39,0c-.86-.13-1.74-.43-2.57-.52"/><path class="cls-3" d="M131.46,15.81c-1.48.19-2.83-.33-4.28-.53a3.22,3.22,0,0,0-2,.55c-.46.34-.38.6.18.68,1,.13,1.92.46,2.91.56a11.72,11.72,0,0,0,2.72-.13c.39,0,1.61-.32,1.69-.81s-.91-.35-1.17-.32Z"/><path class="cls-3" d="M129.2,15.51v.19c.11-1.3-2.16-.84-2.66-.22a1.24,1.24,0,0,0-.31.59q0,.11,0,0-.23.43.48-.33l.77-.21q.89.26.54,0l-.2-.14-.35-.25-.78-.55c-.93-.69-3.53.64-2.26,1.57a4.52,4.52,0,0,0,2.48,1.27,2.23,2.23,0,0,0,2.27-1.78l-.27.5,0,0L126.29,16a1.53,1.53,0,0,0,0,.31c.09.67,1.24.64,1.69.51s1.3-.58,1.21-1.28Z"/><path class="cls-3" d="M298,2.65c0-.47.1-.94.06-1.42S298,.52,298,.15"/><path class="cls-3" d="M298.26,2.57c0-.42.07-.82.07-1.24s-.06-.84-.07-1.26c0-.15-.58,0-.58.16,0,.42.07.84.07,1.26s-.08.82-.07,1.24c0,.15.58,0,.58-.16Z"/><path class="cls-2" d="M97.08,6.07,92.4,8.75a40.15,40.15,0,0,1-4.54,4.35,18,18,0,0,1-1.4,1.26,7.69,7.69,0,0,1-3.11,2l-.14,0a7.14,7.14,0,0,1-4.16.73A2.57,2.57,0,0,1,78,17l-6.57,3.76,5.3,11.49,25.65-14.67Z"/><rect class="cls-2" x="83.65" y="23.61" width="8.96" height="6.75"/><polygon class="cls-2" points="99.58 11.43 104.32 21.35 97.71 25.12 92.97 15.19 99.58 11.43"/><rect class="cls-2" x="86.16" y="19.68" width="11.12" height="7.33" transform="translate(-0.94 42.63) rotate(-26.04)"/><path class="cls-2" d="M93,28.94c2.33-2.59,5.13-4.24,8-6.06.51-.32.33-.45-.14-.54a3.65,3.65,0,0,0-2,.55c-3.2,2-6.15,3.76-8.7,6.6-.31.35,1.08.21,1.14.2A3.07,3.07,0,0,0,93,28.94Z"/><path class="cls-2" d="M69.93,15.68c2.83,1.1,4.92,2.57,8.1,2.87a13.19,13.19,0,0,0,8.83-2.17c1.62-1.09-.86-1.54-1.81-.9-2.79,1.88-5.86,1.69-8.92.68-1.42-.47-2.55-1.38-3.9-1.9-.89-.35-3.52,1-2.3,1.42Z"/><path class="cls-2" d="M97.94,14.54a2.76,2.76,0,0,0,.22-.48c.09-.23-.14-.49-.32-.59a1.69,1.69,0,0,0-1-.14,1.88,1.88,0,0,0-1.63,1l0,0c-.37.59.32.95.82,1a2.18,2.18,0,0,0,1.9-.82Z"/><path class="cls-2" d="M86.65,20.08l.13,0a2.85,2.85,0,0,0,2-.33c.3-.16,1-.68.32-.9l-.12,0a2.85,2.85,0,0,0-2,.33c-.3.16-1,.68-.32.9Z"/><path class="cls-2" d="M68.69,14.5c3.29,2,7.76,2.9,11.56,3.25s7.3-1.14,10.76-2.4c1.89-.68.19-1.87-1.19-1.37-3.74,1.35-7,2.3-11,1.54C76.15,15,73.32,14.46,71,13c-.9-.56-3.54.72-2.28,1.5Z"/><path class="cls-2" d="M90.64,14.32c1.06,0,3.09-1.6,1.14-1.6-1.06,0-3.09,1.6-1.14,1.6Z"/><path class="cls-2" d="M92,15.93v-.26c0-.32-.68-.32-.86-.33-5.31-.13-10.61.44-15.92.14-.77,0-3.35,1.31-1.82,1.4,5.52.31,11-.25,16.56-.11l-.86-.33v.26c0,.73,2.93.21,2.9-.78Z"/><path class="cls-2" d="M91,15.13c-1.5-1.09-4.29-.46-6-.36a82.51,82.51,0,0,0-13.16,1.35c-1.77.39-1.36,1.88.4,1.49a65,65,0,0,1,10.57-1.08c1.14-.06,4.68-.86,5.51-.25s3.5-.55,2.69-1.14Z"/><path class="cls-2" d="M96.64,8c-1.92-.13-4.62,1.15-6.23,2A40,40,0,0,0,87,12.58c-1.19.84-2.24,2.35-3.51,3-1.77.89-.18,2.36,1.26,1.63a7.64,7.64,0,0,0,2.07-1.53,30.54,30.54,0,0,1,3-2.53A12.77,12.77,0,0,1,93.38,11a22.93,22.93,0,0,1,2.23-.88c1.37.09,3-1.91,1-2Z"/><path class="cls-2" d="M95.66,8.72c-2.11-.61-4.34.54-6,1.73-2.43,1.72-5,3.17-7,5.32-.68.7,2.11.42,2.65-.13a25.21,25.21,0,0,1,4.37-3.29c.65-.44,2.85-2.65,3.69-2.41s3.3-.94,2.36-1.21Z"/><path class="cls-2" d="M95,8.19c-1.78,0-2.95.8-4.42,1.64-1.13.65-2.67,1.12-3.15,2.47-.24.69,2.58.35,2.87-.46s1-1,1.68-1.31c.29-.15.58-.3.86-.48l.52-.35c.38-.26.57-.18-.2-.2a3.25,3.25,0,0,0,2-.55c.4-.32.42-.75-.2-.76Z"/><path class="cls-2" d="M91.92,9.67a20,20,0,0,0-5,2.26,17.43,17.43,0,0,0-2.13,1.3c-.66.51-1.41,1.49-2.22,1.72-1.7.48-1.4,1.73.33,1.24a9.93,9.93,0,0,0,3.74-2.28,15.72,15.72,0,0,1,5.65-3c1.73-.42,1.4-1.66-.33-1.24Z"/><path class="cls-2" d="M86.39,14.12c-1.21.05-2.27.6-3.45.75a36.45,36.45,0,0,0-3.89.47c-.3.07-1.44.42-1.32.89s1.33.17,1.58.11c1.07-.25,2.2-.15,3.29-.3.84-.12,1.72-.63,2.54-.66.52,0,1.65-.21,1.93-.71s-.25-.56-.7-.54Z"/><path class="cls-2" d="M73.09,17.34c1.62,0,2.25-2,.28-2-1.62,0-2.25,2-.28,2Z"/><path class="cls-2" d="M86.69,14.31c1,0,3.11-1.46,1.18-1.46-1,0-3.11,1.46-1.18,1.46Z"/><path class="cls-2" d="M88.18,13a16.17,16.17,0,0,0-3.74,1.23,8.91,8.91,0,0,1-3.16.93c-1-.07-3.1,1.4-1.16,1.52a9.43,9.43,0,0,0,3.61-.77,22.05,22.05,0,0,1,4-1.45c.43-.05,1.63-.36,1.66-.94s-.8-.59-1.23-.54Z"/><path class="cls-2" d="M66.16,10,66,10,64,11.39c4.61.86,8.24,3.95,13.1,4.3,4.14.3,7.89-1,11.73-2.4,1.91-.69.16-1.53-1.11-1.07-5.28,1.9-10,2.49-15.32.38-2.22-.89-4.23-2.25-6.6-2.69-.58-.11-3.28.92-2.06,1.41l.13.05c.81.33,3.45-.88,2.32-1.34Z"/><path class="cls-2" d="M241.83,5.71H206.26a21.36,21.36,0,0,1-9.64,2.68,5.88,5.88,0,0,0-.74,2.86v2.54a5.31,5.31,0,0,0,5,5.53h40.92a5.31,5.31,0,0,0,5-5.53V11.24A5.31,5.31,0,0,0,241.83,5.71Z"/><path class="cls-4" d="M167.17,3.37H140.51a4.3,4.3,0,0,1-.75.69V9a5,5,0,0,1,.76.75h26.36a4.36,4.36,0,0,1,.87-.82V4A4.51,4.51,0,0,1,167.17,3.37Z"/><path class="cls-5" d="M167.16,7.51H140.5a5.53,5.53,0,0,1-.75.25V9.57a5.88,5.88,0,0,1,.76.27h26.36a5.46,5.46,0,0,1,.87-.3V7.75A4.57,4.57,0,0,1,167.16,7.51Z"/></g></g></svg>