<svg xmlns="http://www.w3.org/2000/svg" viewBox="0 0 358.26 75.12"><defs><style>.cls-1{fill:none;}.cls-2{fill:#2d2d2d;}.cls-3,.cls-4{fill:#4c3423;}.cls-4,.cls-6{stroke:#4c3423;stroke-miterlimit:10;}.cls-5{fill:#e6e7e8;}.cls-6{font-size:11.64px;fill:#231f20;font-family:MyriadPro-Regular, Myriad Pro;}</style></defs><title>Asset 1</title><g id="Layer_2" data-name="Layer 2"><g id="Layer_1-2" data-name="Layer 1"><line class="cls-1" x1="56.34" y1="0.32" x2="98.42"/><path class="cls-2" d="M127.76,41.87c1.52,6.49,5.73,10.19,12.6,9.27s8.66-6,8.43-12.28c0-.64-1-.64-1,0,.21,5.69-1.15,10.41-7.55,11.28-2.83.38-5.85.14-8.11-1.79-2-1.73-2.82-4.24-3.41-6.74-.15-.63-1.11-.36-1,.27Z"/><path class="cls-2" d="M130.87,40.79c-.44,1.37-.86,2.88-.23,4.26a5.25,5.25,0,0,0,3.09,2.39c.59.25.85-.72.27-1-1.12-.47-2.33-1-2.62-2.34a6,6,0,0,1,.45-3.08c.2-.61-.77-.88-1-.27Z"/><path class="cls-2" d="M357.55,20H137.76a2.79,2.79,0,0,1-1,.75v6.45H357.81A11.67,11.67,0,0,0,357.55,20Z"/><rect class="cls-2" x="147.69" y="6.55" width="38.58" height="6.55"/><ellipse class="cls-2" cx="148.54" cy="9.82" rx="19.6" ry="3.27"/><path class="cls-2" d="M128.57,16.59l16.75-7L128.4,2.45a3.93,3.93,0,0,1-.68.24V16.44A4.53,4.53,0,0,1,128.57,16.59Z"/><path class="cls-2" d="M209.67,18.46V1.25a3.19,3.19,0,0,1-.72-.26L189.22,9.87,209,18.78A4,4,0,0,1,209.67,18.46Z"/><ellipse class="cls-2" cx="182.21" cy="9.84" rx="20.93" ry="3.33"/><rect class="cls-2" x="165.94" y="4.25" width="1.42" height="7.36"/><rect class="cls-2" x="145.32" y="4.99" width="7.23" height="9.97"/><rect class="cls-2" x="180.31" y="4.99" width="7.23" height="9.97"/><rect class="cls-2" x="147.65" y="13.72" width="3.61" height="9.97"/><rect class="cls-2" x="181.47" y="14.69" width="3.61" height="9.97"/><rect class="cls-2" x="354.72" y="18.66" width="1.31" height="6.04"/><path class="cls-3" d="M79.86,26.28c-.69-.65-1.36-1.33-2.1-1.93-.49-.29-1-.58-1.53-.84l-.54-.22c-1-.16-2.08-.33-3.12-.52H3.44l-.05,0a13.64,13.64,0,0,0-3.39,3V51.42H81.49l1.06-.81a2.55,2.55,0,0,1,.75-1.52V30.48A5.41,5.41,0,0,1,81.8,29,8.31,8.31,0,0,1,79.86,26.28Z"/><path class="cls-3" d="M72.92,28.69.39,53.28,11.06,75.06h0c.72-.21,1.44-.41,2.16-.58,1.58-.38,3.1-.88,4.63-1.36L80,52.07c.89-.71,1.78-1.41,2.69-2.09a2.43,2.43,0,0,1,.27-.89Z"/><path class="cls-4" d="M107.91,32.78A37.25,37.25,0,0,1,97.56,34.3a19.94,19.94,0,0,1-9-1.91A19.76,19.76,0,0,1,84.28,31a6.35,6.35,0,0,1-1-.63V46.1H117V30.39A42.14,42.14,0,0,1,107.91,32.78Z"/><path class="cls-4" d="M213.9,22.77H137l-.12.06C131,25,125.18,27.2,119.36,29.5c-.73.29-1.47.57-2.22.85v4.15c0,3,2.88,5.34,6.42,5.34h40l.38,0q12.95-1.41,25.92-2.68c9.32-.91,18.66-1.73,28-2.7.86-.4,1.7-.83,2.52-1.29v-5C220.32,25.16,217.45,22.77,213.9,22.77Z"/><path class="cls-3" d="M11.08,75.05c.72-.21,1.44-.41,2.16-.58,1.25-.3,2.46-.68,3.67-1.07v-23H.09V72.48l.13.18C3.62,75.17,7.19,75.25,11.08,75.05Z"/><path class="cls-3" d="M111.46,50.73c5.23-10.14,22.51-9.38,32.17-11.3,1.38-.27.94-1.84-.42-1.57-10.56,2.1-28.07,1.41-33.84,12.58-.58,1.12,1.62,1.19,2.09.29Z"/><path class="cls-3" d="M68.77,55.51c7.16-1.45,21.12-7,24.74,2.56.35.92,2.51.31,2.17-.58-4.08-10.74-19.29-5-27.29-3.36-1.36.28-1,1.66.37,1.38Z"/><path class="cls-4" d="M95.56,57.8a43.09,43.09,0,0,1,13.65-6.29l.37-.17a4,4,0,0,1,1.33-.32V42.25H95.06V58.13Z"/><path class="cls-3" d="M108.2,51.51l.37-.17a4,4,0,0,1,1.38-.32V40.19H80.18V52h26.26C107,51.82,107.61,51.65,108.2,51.51Z"/><path class="cls-5" d="M89.79,51.78c1.13,0,2.13,1.26,2.81,2A34.71,34.71,0,0,0,95,56.49l2.49-1.29a9.38,9.38,0,0,1-3.06-1.92c-.67-.58-1.43-1.78-2.25-2.11a2.35,2.35,0,0,0-2.05.26c-.46.3-.8.79-.24,1.17a3.25,3.25,0,0,0,.32.18c.86.45,3.52-.8,2.3-1.43a3.25,3.25,0,0,1-.32-.18l-2.3,1.43c.33.13.7.74,1,1,.47.45,1,.89,1.46,1.3a9.78,9.78,0,0,0,2.89,1.74,2.38,2.38,0,0,0,1.89-.18c.31-.16,1-.7.6-1.11-2-1.84-3.59-5.34-6.74-5.25-.6,0-1.62.18-1.91.8s.23.9.79.89Z"/><path class="cls-5" d="M110.74,49.33a12,12,0,0,1,5.44-4c.39-.14,1.16-.63.79-1.11s-1.48-.15-1.91,0a15.62,15.62,0,0,0-7,5.07c-.44.54.38.78.77.8a2.49,2.49,0,0,0,1.92-.78Z"/><path class="cls-5" d="M114.07,45a5,5,0,0,0-3.59,3c-.18.63.89.65,1.25.61.56-.07,1.47-.35,1.65-1a1.87,1.87,0,0,1,.52-.83,2.7,2.7,0,0,1,.33-.27l.13-.08q-.13.06,0,0c.21-.11-.31.07.09,0s1.42-.51,1.26-1.1-1.25-.43-1.64-.33Z"/><path class="cls-5" d="M114.3,45.1c3.88.11,7-2.21,10.45-3.49,1.93-.7.12-1.19-1-.77-2.32.85-5,3.06-7.56,3a3,3,0,0,0-2,.55c-.3.34-.51.7.19.72Z"/><path class="cls-5" d="M116,45c1.09,0,3.07-1.65,1.13-1.65-1.09,0-3.07,1.65-1.13,1.65Z"/><path class="cls-3" d="M79.08,52.39c3.29,0,11.86-1.79,12.46,3.14.46,3.83-4.3,7-7.37,9.28a139.16,139.16,0,0,1,19.62,2.09c2.85-11.6,13.4-20.9,25.82-26.16"/><path class="cls-3" d="M78.81,52.84c3-.08,6.12-.8,9,.08,7.53,2.31-1,9.39-4.09,11.65-.37.27-.33.68.19.69a148.34,148.34,0,0,1,19.46,2.07c.39.06,1,0,1.16-.5,3.4-12.45,14-20.75,25.39-25.75.92-.4.09-1-.59-.67C117.57,45.57,106.58,54.13,103.06,67l1.16-.5c-2.7-.44-5.39-.86-8.11-1.2-1.5-.19-3-.36-4.52-.5-.73-.07-4.84.05-5.39-.37Q85,64.5,86.1,64q.79-.58,1.56-1.2c.56-.46,1.11-.92,1.63-1.42A9.81,9.81,0,0,0,92,57.67c2.49-7.49-8.68-5.83-12.62-5.72-.58,0-1.52.92-.55.89Z"/><path class="cls-3" d="M85.41,51.9c1.16,1.46,3.07,1.81,3.57,3.79s-.71,3.64-2.06,5.18c-.21.24-2.16,2.93-2.15,2.93-.81.1-1.1,1.21-.12,1.09,1.22-.15,1.66-1.37,2.37-2.26,1.31-1.65,3.09-3.12,3.56-5.27.75-3.45-2.13-3.94-3.84-6.11-.42-.53-1.8.05-1.32.65Z"/><path class="cls-3" d="M90.85,55.85c0,2.4,0,3.83-1.93,5.58a32,32,0,0,0-3.18,2.88c-.55.65.79.6,1.08.56,5.69-.94,13,1.41,17.1-4,.64-.83-2.18-.49-2.65.13-3,3.92-9.62,1.88-14,2.6l1.08.56c1.32-1.57,3.34-2.52,4.49-4.23,1-1.45.88-3.21.87-4.88,0-.61-2.9-.15-2.9.78Z"/><path class="cls-3" d="M93.66,64.52c-1.23-.12-2.36.26-3.61.17a42.7,42.7,0,0,1,7.58-.17c1.58.15,3.28,1.07,4.94,1a43.13,43.13,0,0,1,2.26-5.67c-1.05,1.13-2.07,3.39-3.69,4.07-2.36,1-.9-.94-.38-2-2.7,1.41-3.7,3.43-2.74,2.07.77-1.09,1.61-3.62,2-4.19-1,.75-1.91,1.59-2.86,2.39.61-1.49,2.49-4.22,1.76-5.79a8,8,0,0,0-3.46,4.64A3.72,3.72,0,0,0,96,59c-1.47.22-2.47,2.19-3.14,3.19-.16-.86.36-1.71,0-2.51-1.23.31-2.13,2-2.47,3a10.26,10.26,0,0,0,.76-.88c-.12.3-.09.74-.18,1.05A4,4,0,0,0,94,61a5.21,5.21,0,0,1,.59,1.4,3.49,3.49,0,0,0-.38-2.24,4.84,4.84,0,0,0-1.16,2.57c.8-1.46.41-3.09.77-4.63-.08,1.15-.12,2.65.77,3.52a7.53,7.53,0,0,0,.76-2.69c-.5,1.18-1.08,2.94-.56,4.12,1.69-.87,2.14-3.78,1.9-5.32-.51,1.15-.9,3.43.46,4.24,2.44-.67,4.7-6.28,4.65-8.26-1.17.83-2.16,4.5-1.23,5.64,1.38-1.43,2.47-4.55,2-6.35-1.47,1.25-3.17,4.48-2.55,6.2,2.45-1.13,3.7-5,4.64-7.11a10.84,10.84,0,0,0-2.5,6.6c2-.84,4.87-5.49,5.2-7.42-1.94,1.91-4.22,5.3-4.59,7.82A27.27,27.27,0,0,0,107,52a80,80,0,0,0-6.35,8.9c3.42.7,8.82-8.5,10.77-10.72a34.22,34.22,0,0,1,6.67-6.07c1.63-1.11,3.21-2.82,5.15-3.5.43,1.53-2.09,3.3-3.41,4.14a41.87,41.87,0,0,0-6.13,4.54c-1.78,1.62-3.55,3.26-5.17,5-1.41,1.51-1.87,3.26-3.15,4.75l-.47-.21"/><path class="cls-3" d="M94.26,63.85q-1.81.07-3.61.17l-1.21,1.34c4.27-.35,8,.31,12.2.87.63.09,2.1-.18,2.36-.89a58.7,58.7,0,0,1,2.26-5.67c.36-.74-2.41-.15-2.76.29-.82,1-3,4.95-1.3,1.76.44-.82-2.36,0-2.57.11-.79.48-3.3,1.79-3.38,3-.05.77,2.52-.12,2.77-.45a27.36,27.36,0,0,0,2.42-4.78c.39-.79-2.3-.1-2.57.11Q97.42,60.86,96,62.1L98.6,62c.93-2,2.1-3.73,1.78-5.95-.12-.81-2.26.06-2.58.27a9.61,9.61,0,0,0-3.77,5c-.26.7,2.55.33,2.87-.46a3.72,3.72,0,0,0,.52-2c.09-.79-1.61-.35-2-.2a8.63,8.63,0,0,0-4.05,3.85l2.89-.62a12.5,12.5,0,0,0,0-2.51c0-.71-2.06,0-2.31.11A6.22,6.22,0,0,0,89,63c-.35.83,2.44.08,2.76-.29l.76-.88-2.76.29-.18,1.05c-.12.69,1.29.39,1.58.32a6.87,6.87,0,0,0,4.24-2.52l-2.77.45.59,1.4c.34.79,2.9,0,2.9-.78a3.49,3.49,0,0,0-.38-2.24c-.28-.81-2.44,0-2.77.45a6.73,6.73,0,0,0-1.27,2.74c-.2.8,2.62.33,2.87-.46.8-2.52.36-1.11.77-4.63l-2.89.62A5.49,5.49,0,0,0,93.18,62c.44.75,2.62.07,2.89-.62a7.53,7.53,0,0,0,.76-2.69c.16-.88-2.61-.26-2.87.46a7.67,7.67,0,0,0-.57,4.28c.12.78,2.26,0,2.58-.27,1.87-1.48,2.39-3.49,2.22-5.82-.06-.78-2.69,0-2.89.62-.59,1.82-.72,3.06.54,4.54.42.5,1.81-.05,2.22-.24,3.19-1.5,5-5.57,5.24-8.93.06-.8-2.52.17-2.77.45a5.86,5.86,0,0,0-1.36,6c.33.8,2.42,0,2.77-.45a9.05,9.05,0,0,0,2.14-6.68c-.09-.87-2.49.15-2.77.45-1.72,1.79-3,4-2.68,6.53.11.81,2.26-.07,2.58-.27,2.68-1.76,3.72-4.61,4.95-7.46.33-.77-2.43-.17-2.76.29a12.44,12.44,0,0,0-2.63,6.93c0,.68,2.09,0,2.31-.11A13.73,13.73,0,0,0,108.84,51c.27-1-2.47,0-2.76.29a17.84,17.84,0,0,0-4.7,8c-.23,1,2.46.07,2.76-.29a31.16,31.16,0,0,0,4.3-7.22c.35-.75-2.42-.16-2.76.29a95.39,95.39,0,0,0-6.46,9.07c-.17.29.35.43.52.44,3.82.11,6.32-2.67,8.56-5.46,4.65-5.8,8.85-11.84,15.82-15.21l-2.31.11c-.21,3-7.31,6.49-9.42,8.35a52.86,52.86,0,0,0-8.32,9.74l2.5-.67-.47-.21c-.7-.31-3.35.78-2.35,1.23l.47.21a2.71,2.71,0,0,0,2.5-.67c3.43-4.78,6.78-8.93,11.66-12.39,2.33-1.65,6.1-3.13,6.32-6.36,0-.69-2.1,0-2.31.11a39.6,39.6,0,0,0-13.18,11c-1.6,2.06-3,4.29-4.72,6.24-.95,1.06-3.86,4.43-.61.2,1.49-1.94,2.94-3.92,4.43-5.87l-2.76.29a29.84,29.84,0,0,1-4.08,6.88l2.76-.29a17.06,17.06,0,0,1,4.47-7.65L106,51.5c-.67,2.46-2.37,5.57-4.63,6.92l2.31-.11A11,11,0,0,1,106,52l-2.76.29c-1.06,2.48-2,5.21-4.33,6.77l2.58-.27c-.3-2.33.88-4.26,2.43-5.87l-2.77.45a8.05,8.05,0,0,1-1.89,6l2.77-.45a5.19,5.19,0,0,1,1.11-5.31l-2.77.45c-.18,2.53-1.68,6.48-4.06,7.59l2.22-.24a3.84,3.84,0,0,1-.38-4l-2.89.62c.12,1.7-.09,3.64-1.58,4.81l2.58-.27a6.3,6.3,0,0,1,.54-4L94,59.16a7.53,7.53,0,0,1-.76,2.69l2.89-.62a5.49,5.49,0,0,1-.77-3.52c0-.64-2.8-.12-2.89.62a26,26,0,0,1-.77,4.63l2.87-.46a5.31,5.31,0,0,1,1-2.4l-2.77.45a3.49,3.49,0,0,1,.38,2.24l2.9-.78-.59-1.4c-.34-.8-2.41,0-2.77.45l-1.88,1.31,1.58.32.18-1.05c.17-1-2.45-.07-2.76.29l-.76.88,2.76-.29A4.64,4.64,0,0,1,93.73,60l-2.31.11a12.5,12.5,0,0,1,0,2.51c-.05.85,2.63-.21,2.89-.62a5.26,5.26,0,0,1,2.23-2.54l-2-.2a3.72,3.72,0,0,1-.52,2l2.87-.46a8.22,8.22,0,0,1,3.15-4.29l-2.58.27c.31,2.12-.9,3.82-1.75,5.63-.38.79,2.29.12,2.57-.11q1.39-1.25,2.86-2.39l-2.57.11a25.43,25.43,0,0,1-2.2,4.44L99.15,64c0-.41,2.51-1.85,2.74-2l-2.57.11a9.12,9.12,0,0,0-.93,2,.24.24,0,0,0,.08.29c2.81,2.25,6.43-3.11,7.67-4.67l-2.76.29a58.7,58.7,0,0,0-2.26,5.67l2.36-.89c-4.58-.62-8.15-1.28-12.84-.89-.84.07-3.15,1.44-1.21,1.34q1.8-.1,3.61-.17c.88,0,3.13-1.42,1.21-1.34Z"/><path class="cls-3" d="M115,47.71c2.13-.36,3.46-2.24,5.46-3L119,43.66c-.86.63-1.63,1.39-2.52,2l1.81.9C119.45,45.76,122,44,123,44l0-1.46a37.82,37.82,0,0,1-6,1.91c-1.53.47-3.56,1.62-5.09.95-.88-.39-3.52.89-2.3,1.42,2.18,1,3.91.32,6.11-.36,2.75-.85,5.91-1.38,8.47-2.68.78-.4,1.33-1.49,0-1.46-2.7.06-5.46,1.88-7.63,3.33-1.64,1.09.86,1.5,1.81.9s1.65-1.32,2.52-2c1.5-1.1-.56-1.41-1.48-1.06a11.54,11.54,0,0,0-2.87,1.41c-.36.26-1.64,1.27-1,1.17-1.39.23-2.38,2-.38,1.65Z"/><path class="cls-3" d="M76.51,26.15c2.05,1.36,3.81,3.15,5.9,4.42a76.1,76.1,0,0,0,8,3.81c.4.19,1.73-.41,1.16-.68-2.41-1.11-4.88-2.05-7.2-3.36s-4.28-3.27-6.51-4.74c-.41-.27-1.71.31-1.35.55Z"/><text class="cls-6" transform="translate(62.56 50.45) scale(1.2 1)">4C3423</text><path class="cls-3" d="M94.87,50.31c-.34-.43-.18-1.06-.18-1.57l-1.45.39a2.45,2.45,0,0,1,.15.9c0,.29,1.44.07,1.45-.39a2.45,2.45,0,0,0-.15-.9c-.14-.39-1.45,0-1.45.39a2.44,2.44,0,0,0,.27,1.69c.23.3,1.62-.18,1.36-.51Z"/><path class="cls-3" d="M105,49.71a8.34,8.34,0,0,0,.48-6.49c-.17-.6-1.62-.21-1.45.39a7.66,7.66,0,0,1-.4,6c-.37.66,1.1.6,1.37.11Z"/><path class="cls-3" d="M70.71,44.53a2.81,2.81,0,0,0-.85,2.9c.38,1,1.52,1.19,2,2.05l1.31-.5a2.12,2.12,0,0,1-1.06-2.81c.3-.46-1.11-.27-1.33.06A2.36,2.36,0,0,0,72,49.6c.18,0,1.52-.12,1.31-.5-.39-.69-1.13-1-1.65-1.53-.89-1-.4-2.26.38-3.1.35-.37-1.06-.23-1.33.06Z"/><path class="cls-3" d="M81.8,43.49a15.33,15.33,0,0,1,.93,2.75,5.07,5.07,0,0,1-.54,2.9c-.26.8,1.18.81,1.39.18a7.08,7.08,0,0,0,.72-2.84,11.71,11.71,0,0,0-1.05-3.38c-.29-.66-1.73-.24-1.45.39Z"/><path class="cls-3" d="M112.93,45.88a11.72,11.72,0,0,1,5.35-2.47l-.42-.79c-.78.4-1.56.79-2.32,1.23s.26.86.77.63c1.72-.77,3.36-1.7,5.06-2.51a7.32,7.32,0,0,0,2.85-1.87c.34-.43-.09-.64-.51-.63-2.65.11-4.33,2.67-6.83,3.31l.58.7c1.65-1.15,3.95-2.07,4.57-4.15.18-.59-1.29-.41-1.46.15-.5,1.69-2.7,2.53-4,3.47-.65.46.07.83.58.7a9.52,9.52,0,0,0,2.69-1.13c1.14-.71,2.31-2,3.74-2.11l-.51-.63c-.76,1-2.05,1.36-3.13,1.88-1.41.68-2.76,1.46-4.19,2.1l.77.63q1-.55,2-1.05c.75-.38.3-1-.42-.79-2.34.63-4.51,1.3-6.31,3-.64.6.78.71,1.19.33Z"/><path class="cls-3" d="M117.38,43.23c1.23-1.73.67-4.59.2-6.52l-1.4.47c1.33,1.09.44,3.42,1.84,4.67.35.31,1.21,0,1.4-.37.72-1.43-1-2.44-1.1-3.89l-1.4.47c.52.81.57,2,1.36,2.66a2.76,2.76,0,0,0,2.44.18c.2,0,.7-.23.64-.52-.2-.92-1.29-.84-1.64-1.63l-1.18.56a21.21,21.21,0,0,0,3.65.84,6,6,0,0,1,2.61.33c.37.22,1.71-.34,1.16-.66a5.22,5.22,0,0,0-2.4-.39,21.71,21.71,0,0,1-4.12-.86c-.22-.05-1.35.16-1.18.56.34.75,1.48.84,1.64,1.63l.64-.52c-1.51.38-1.69-1.82-2.28-2.73-.23-.37-1.42,0-1.4.47,0,1.3,1.7,2.53,1.11,3.7l1.4-.37c-1.39-1.24-.45-3.53-1.84-4.67-.28-.23-1.52,0-1.4.47.42,1.75,1,4.59-.09,6.14-.35.5,1.08.35,1.34,0Z"/><path class="cls-3" d="M76.38,25.79c5.83,4.85,13.73,6.6,21.11,7.79,8,1.29,14.5.06,21.9-3.16.93-.41.07-.72-.53-.45-8.73,3.81-16.58,4.08-25.74,1.84-5.58-1.37-10.9-2.83-15.37-6.54-.34-.28-1.66.27-1.36.53Z"/><path class="cls-3" d="M78.89,29c3.36,1.84,7.32,2.16,11,3.32a123.64,123.64,0,0,0,13.45,3.64c.5.1,1.71-.66.88-.83a96.69,96.69,0,0,1-11.8-3.05c-4-1.34-8.65-1.79-12.33-3.81-.44-.24-1.77.39-1.14.73Z"/><path class="cls-3" d="M83.61,30.95c3,.76,5.64,1.81,8.65,2.48a43.63,43.63,0,0,0,9.4,1.28c.28,0,1.63-.55,1-.55-6.31,0-11.86-2.23-17.81-3.75-.32-.08-1.56.44-1.2.53Z"/><path class="cls-3" d="M97.84,34.07c.39.2.85.22,1.24.42s1.76-.39,1.15-.72c-.39-.21-.85-.22-1.24-.42a1.13,1.13,0,0,0-1,.13c-.2.13-.43.42-.12.59Z"/><path class="cls-3" d="M125.61,27.62q3.21-.57,6.45-.87c.69-.06,1.22-.85.21-.76q-3.25.3-6.45.87c-.67.12-1.21.94-.21.76Z"/><path class="cls-3" d="M99.61,37.5a40.42,40.42,0,0,1,7.47-3.92c.91-.4.09-1-.61-.72a42.23,42.23,0,0,0-7.8,4.1c-.8.57.41.91.93.54Z"/><path class="cls-3" d="M130.4,25.86c1.7-.2,3.4-.34,5.11-.42.44,0,1.56-.72.6-.67q-2.74.12-5.47.45c-.63.08-1.26.76-.24.64Z"/><path class="cls-3" d="M100.62,38.37c2-2.55,5.44-3.65,8.23-5.07.89-.45.08-1.08-.61-.73-3,1.52-6.69,2.72-8.81,5.46-.55.7.83.8,1.19.34Z"/><path class="cls-3" d="M127.61,26.69a61.73,61.73,0,0,1,9.71-.29c.35,0,1.66-.61.92-.65a63.75,63.75,0,0,0-10,.29c-.42,0-1.56.75-.61.65Z"/><path class="cls-3" d="M96.66,37.27c2.41-1,4.55-2.51,6.88-3.67.9-.45.07-.88-.56-.56-2.33,1.15-4.48,2.66-6.88,3.67-.93.39-.08.83.56.56Z"/><path class="cls-3" d="M136.44,23.71q1.8-.14,3.6-.22c.81,0,1.13-1.07.14-1q-1.8.08-3.6.22c-.8.06-1.13,1.1-.14,1Z"/><path class="cls-3" d="M99.7,35.87c1.84-.19,3.25-1.28,4.78-2.2.25-.15.37-.36.13-.56s-.81,0-1,.14c-1.16.7-2.29,1.69-3.68,1.83-.71.07-1.21.9-.2.8Z"/><path class="cls-3" d="M81.65,29.31c5.75,1.31,11.31,3.21,17.21,4s12.05.49,18.09.22c.53,0,1.54-.85.57-.81-6.56.29-13,.6-19.54-.47-5.27-.87-10.28-2.58-15.43-3.76-.45-.1-1.7.59-.89.77Z"/><path class="cls-3" d="M75.3,25.84c.7-.57,6.55,2.88,7,3.08,3.87,1.62,8,2.6,11.85,4.26.37.16,1.69-.41,1.17-.63-5.33-2.29-10.83-4-16.14-6.33-1.45-.63-3.61-1.69-5.06-.51-.61.49.83.39,1.14.14Z"/><path class="cls-3" d="M125,40.22a3.61,3.61,0,0,0-1.59,2c-.16.69,1.5.19,1.73.06a8,8,0,0,0,1.37-1l.55-.46c.06,0,.14-.08.2-.13s-.3,0,.09,0l0-.74-.49.29c-.3.18-.63.45-.23.7s1.2-.05,1.53-.24l.49-.29c.35-.19.71-.7,0-.74a5.15,5.15,0,0,0-3,.68c-.69.41-1.19,1.07-1.89,1.46l1.73.06a2.15,2.15,0,0,1,.42-.77l.28-.35c.16-.18.44-.3,0-.11.32-.15.61-.46.23-.7s-1.17.08-1.53.24Z"/><path class="cls-3" d="M86.14,62.89a22.21,22.21,0,0,0-2.19,1.45c-.39.33.34.4.52.39a2.55,2.55,0,0,0,1.45-.53A19.24,19.24,0,0,1,87.81,63c.35-.23.26-.47-.14-.51a2.61,2.61,0,0,0-1.54.41Z"/><path class="cls-3" d="M86.81,61.8c-1.54.58-2.16,2-3.3,3-.37.34.32.43.53.41a2.4,2.4,0,0,0,1.45-.53,11.69,11.69,0,0,0,1.1-1.29c.25-.31.67-.91,1-1s.9-.36.63-.67-1.15,0-1.41.09Z"/><path class="cls-3" d="M67.1,43.68q-.07,3.54.07,7.08c0,.64,1,.64,1,0q-.14-3.54-.07-7.08a.5.5,0,0,0-1,0Z"/><path class="cls-3" d="M63.08,47.43l-.08.17c-.29.57.58,1.08.86.5l.08-.17c.29-.57-.58-1.08-.86-.5Z"/><path class="cls-3" d="M89.6,43.43q-.06,3.58.09,7.17c0,.64,1,.64,1,0q-.14-3.58-.09-7.17a.5.5,0,0,0-1,0Z"/><path class="cls-3" d="M85.08,47.51a1.3,1.3,0,0,0,1.26,1.32c.64.05.64-.95,0-1a.29.29,0,0,1-.26-.32.5.5,0,0,0-1,0Z"/><path class="cls-3" d="M89,54.14a3.38,3.38,0,0,1,1.8,3,.5.5,0,0,0,1,0,4.39,4.39,0,0,0-2.3-3.9c-.57-.31-1.07.56-.5.86Z"/><path class="cls-3" d="M97.07,43.7c.48.58,1.1,2.08.29,2.67-.51.38,0,1.25.5.86,1.39-1,.86-3.09-.09-4.24-.41-.5-1.12.22-.71.71Z"/><path class="cls-3" d="M98.65,33.17a2.46,2.46,0,0,0-1.87,0c-.59.24-.33,1.21.27,1a1.65,1.65,0,0,1,1.34,0c.6.24.85-.72.27-1Z"/><path class="cls-3" d="M117.69,40.6a3.93,3.93,0,0,1-1.29,2.47c-.48.44.23,1.14.71.71a5,5,0,0,0,1.59-3.18c.07-.64-.93-.63-1,0Z"/><path class="cls-3" d="M91.32,57.3a1.61,1.61,0,0,1,.26-1.56c.38-.52-.48-1-.86-.5a2.54,2.54,0,0,0-.36,2.33c.2.61,1.17.35,1-.27Z"/><path class="cls-3" d="M98.66,46.59c.09-1.39-1.07-2.62-1.78-3.73l-.79.61c.84.73.75,2,1.13,2.92a6.6,6.6,0,0,1,.41,4.48c-.13.63.83.9,1,.27a7,7,0,0,0-.07-4.28,17.43,17.43,0,0,1-.8-2.49,2.72,2.72,0,0,0-.93-1.59c-.41-.35-1.11.1-.79.61.53.83,1.71,2.18,1.65,3.22,0,.64,1,.64,1,0Z"/></g></g></svg>